<?xml version="1.0" encoding="UTF-8" standalone="no"?>
<!-- Created with Inkscape (http://www.inkscape.org/) -->

<svg
   xmlns:dc="http://purl.org/dc/elements/1.1/"
   xmlns:cc="http://creativecommons.org/ns#"
   xmlns:rdf="http://www.w3.org/1999/02/22-rdf-syntax-ns#"
   xmlns:svg="http://www.w3.org/2000/svg"
   xmlns="http://www.w3.org/2000/svg"
   xmlns:sodipodi="http://sodipodi.sourceforge.net/DTD/sodipodi-0.dtd"
   xmlns:inkscape="http://www.inkscape.org/namespaces/inkscape"
   width="128"
   height="128"
   id="svg2"
   version="1.1"
   inkscape:version="0.48.4 r9939"
   sodipodi:docname="x.svg">
  <defs
     id="defs4" />
  <sodipodi:namedview
     id="base"
     pagecolor="#ffffff"
     bordercolor="#666666"
     borderopacity="1.0"
     inkscape:pageopacity="0.0"
     inkscape:pageshadow="2"
     inkscape:zoom="2"
     inkscape:cx="103.68783"
     inkscape:cy="67.743115"
     inkscape:document-units="px"
     inkscape:current-layer="svg2"
     showgrid="true"
     fit-margin-top="0"
     fit-margin-left="0"
     fit-margin-right="0"
     fit-margin-bottom="0"
     inkscape:window-width="1301"
     inkscape:window-height="743"
     inkscape:window-x="65"
     inkscape:window-y="0"
     inkscape:window-maximized="1"
     inkscape:snap-bbox="true">
    <inkscape:grid
       type="xygrid"
       id="grid3852"
       empspacing="4"
       visible="true"
       enabled="true"
       snapvisiblegridlinesonly="false" />
  </sodipodi:namedview>
  <metadata
     id="metadata7">
    <rdf:RDF>
      <cc:Work
         rdf:about="">
        <dc:format>image/svg+xml</dc:format>
        <dc:type
           rdf:resource="http://purl.org/dc/dcmitype/StillImage" />
        <dc:title></dc:title>
      </cc:Work>
    </rdf:RDF>
  </metadata>
  <path
     style="font-size:medium;font-style:normal;font-variant:normal;font-weight:normal;font-stretch:normal;text-indent:0;text-align:start;text-decoration:none;line-height:normal;letter-spacing:normal;word-spacing:normal;text-transform:none;direction:ltr;block-progression:tb;writing-mode:lr-tb;text-anchor:start;baseline-shift:baseline;color:#000000;fill:#000000;fill-opacity:1;stroke:none;stroke-width:32;marker:none;visibility:visible;display:inline;overflow:visible;enable-background:accumulate;font-family:Sans;-inkscape-font-specification:Sans"
     d="M 64,0 C 45.333333,0 30.214362,4.7403684 19.59375,13.84375 8.9731381,22.947132 4,36 4,48 l 32,0 c 0,-4 1.026862,-6.947132 4.40625,-9.84375 C 43.785638,35.259632 50.666667,32 64,32 77.333333,32 84.214362,35.259632 87.59375,38.15625 90.973138,41.052868 91.796543,44.005178 92,48 92.285937,53.61428 84.859366,54.309895 81.125,55.40625 75.655154,57.012117 68.430812,58.53203 60.90625,64.125 53.381688,69.71797 47.618663,80.559902 48,92 l 32,0 c 0,-4 7.569239,-6.292129 10,-7 5.654413,-1.646644 14.46664,-3.118938 22,-9 7.53336,-5.881062 12,-16.25 12,-28 C 124,36 119.02686,22.947132 108.40625,13.84375 97.785638,4.7403684 82.666667,0 64,0 z"
     id="path4444"
     inkscape:connector-curvature="0"
     sodipodi:nodetypes="ssccssssssccsssss" />
  <rect
     style="fill:#000000;fill-opacity:1;fill-rule:nonzero;stroke:none"
     id="rect4450"
     width="32"
     height="24"
     x="48"
     y="104" />
</svg>
